# xmcd
#
# Track frame offsets:
#	150
#	13842
#	32557
#	73077
#	94160
#	121066
#	157885
#	197933
#	228743
#	254162
#	283569
#	335994
#
# Disc length: 4764 seconds
#
# Revision: 1
# Processed by: cddbd v1.5.2PL0 Copyright (c) Steve Scherf et al.
# Submitted via: audiograbber 1.83.01
#
DISCID=b3129a0c
DTITLE=Grateful Dead - 73-12-19A Curtis Hixon Convention Hall, Tampa FL
DYEAR=1900
DGENRE=
TTITLE0=Stage Banter
TTITLE1=Promised Land
TTITLE2=Sugaree
TTITLE3=Mexicali Blues
TTITLE4=Dire Wolf
TTITLE5=Black Throated Wind
TTITLE6=Candyman
TTITLE7=Jack Straw
TTITLE8=Big Railroad Blues
TTITLE9=Big River
TTITLE10=Here Comes Sunshine
TTITLE11=El Paso
EXTD=
EXTT0=
EXTT1=
EXTT2=
EXTT3=
EXTT4=
EXTT5=
EXTT6=
EXTT7=
EXTT8=
EXTT9=
EXTT10=
EXTT11=
PLAYORDER=
